<svg xmlns="http://www.w3.org/2000/svg" viewBox="0 0 512 512">
  <path fill="#FA0F00" d="M0 192c0-35.3 28.7-64 64-64c.5 0 1.1 0 1.6 0C73 91.5 105.3 64 144 64c14.7 0 28.4 4.4 39.9 12C198.2 49.2 225 32 256 32s57.8 17.2 72.1 44C339.6 68.4 353.3 64 368 64c38.7 0 71 27.5 78.4 64c.5 0 1.1 0 1.6 0c35.3 0 64 28.7 64 64c0 11.7-3.1 22.6-8.6 32L8.6 224C3.1 214.6 0 203.7 0 192zm0 91.4C0 268.3 12.3 256 27.4 256l457.1 0c15.1 0 27.4 12.3 27.4 27.4c0 70.5-44.4 130.7-106.7 154.1L403 432c0 8.8-7.2 16-16 16l-262 0c-8.8 0-16-7.2-16-16l-1.3-21.5C45.4 386.1 1 325.9 1 255.4z"/>
</svg>
